<?xml version="1.0" encoding="UTF-8"?>
<svg version="1.1" viewBox="0 0 319.17 313.18" xmlns="http://www.w3.org/2000/svg" xmlns:cc="http://creativecommons.org/ns#" xmlns:dc="http://purl.org/dc/elements/1.1/" xmlns:rdf="http://www.w3.org/1999/02/22-rdf-syntax-ns#" xmlns:xlink="http://www.w3.org/1999/xlink">
<defs>
<linearGradient id="b" x1="72.832" x2="72.832" y1="20.395" y2="36.658" gradientUnits="userSpaceOnUse" xlink:href="#e"/>
<linearGradient id="e">
<stop stop-color="#a40000" offset="0"/>
<stop stop-color="#ef2929" offset="1"/>
</linearGradient>
<radialGradient id="a" cx="103.59" cy="94.288" r="25.809" gradientTransform="matrix(1 0 0 .84932 0 14.208)" gradientUnits="userSpaceOnUse" xlink:href="#d"/>
<linearGradient id="d">
<stop stop-color="#fff" offset="0"/>
<stop stop-color="#fff" stop-opacity="0" offset="1"/>
</linearGradient>
<filter id="c" color-interpolation-filters="sRGB">
<feGaussianBlur stdDeviation="0.71376063"/>
</filter>
<linearGradient id="g" x1="264.29" x2="264.29" y1="573.26" y2="649.32" gradientTransform="matrix(4 0 0 4 -715.14 -2044.8)" gradientUnits="userSpaceOnUse">
<stop stop-color="#f9f8f8" offset="0"/>
<stop stop-color="#ececec" offset=".070067"/>
<stop stop-color="#e8e7e7" offset=".93328"/>
<stop stop-color="#b4b3b4" offset="1"/>
</linearGradient>
<linearGradient id="f" x1="248.76" x2="249.81" y1="634.69" y2="664.5" gradientTransform="matrix(4 0 0 4 -715.14 -2044.8)" gradientUnits="userSpaceOnUse">
<stop stop-color="#dad9d9" offset="0"/>
<stop stop-color="#dad9d9" offset=".27966"/>
<stop offset="1"/>
</linearGradient>
<filter id="h" color-interpolation-filters="sRGB">
<feGaussianBlur stdDeviation="0.74285713"/>
</filter>
</defs>
<metadata>
<rdf:RDF>
<cc:Work rdf:about="">
<dc:format>image/svg+xml</dc:format>
<dc:type rdf:resource="http://purl.org/dc/dcmitype/StillImage"/>
<dc:title/>
</cc:Work>
</rdf:RDF>
</metadata>
<g transform="translate(-190.41 -249.81)">
<rect transform="matrix(4 0 0 4 -180 -2477.1)" x="96.107" y="683.72" width="74.286" height="74.286" ry="9.2857" fill="#888a85" filter="url(#h)" opacity=".72245" stroke="#888a85" stroke-width=".44291"/>
<rect x="193.43" y="251.82" width="297.14" height="297.14" ry="37.143" fill="url(#g)" stroke="url(#f)" stroke-width="1.7717"/>
<path transform="matrix(3.4289 0 0 2.1938 -70.417 95.92)" d="m129.4 94.288c0 12.106-11.555 21.92-25.809 21.92-14.254 0-25.809-9.8141-25.809-21.92 0-12.106 11.555-21.92 25.809-21.92 14.254 0 25.809 9.8141 25.809 21.92z" fill="url(#a)" filter="url(#c)" opacity=".76327"/>
<path transform="matrix(1.4249 0 0 1.7581 299.81 342.45)" d="m129.4 94.288c0 12.106-11.555 21.92-25.809 21.92-14.254 0-25.809-9.8141-25.809-21.92 0-12.106 11.555-21.92 25.809-21.92 14.254 0 25.809 9.8141 25.809 21.92z" fill="url(#a)" filter="url(#c)" opacity=".76327"/>
<path transform="matrix(3.507 0 0 3.507 174.57 204.35)" d="m80.964 28.527c0 4.491-3.6407 8.1317-8.1317 8.1317-4.491 0-8.1317-3.6407-8.1317-8.1317 0-4.491 3.6407-8.1317 8.1317-8.1317 4.491 0 8.1317 3.6407 8.1317 8.1317z" fill="url(#b)"/>
<path transform="matrix(3.507 0 0 3.507 -1.4262 388.35)" d="m80.964 28.527c0 4.491-3.6407 8.1317-8.1317 8.1317-4.491 0-8.1317-3.6407-8.1317-8.1317 0-4.491 3.6407-8.1317 8.1317-8.1317 4.491 0 8.1317 3.6407 8.1317 8.1317z" fill="url(#b)"/>
<path d="m225.6 491.54c-0.0972 0.95872-0.0952 1.8692-0.0952 2.8536 0 15.75 12.691 28.536 28.441 28.536 15.75 0 28.536-12.786 28.536-28.536 0-0.9844 2e-3 -1.8949-0.0948-2.8536-1.5884 14.246-13.771 25.302-28.441 25.302-14.67 0-26.757-11.056-28.346-25.302z" fill="#fff"/>
<path d="m401.6 307.54c-0.0972 0.95872-0.0952 1.8692-0.0952 2.8536 0 15.75 12.691 28.536 28.441 28.536 15.75 0 28.536-12.786 28.536-28.536 0-0.9844 0-1.8949-0.095-2.8536-1.5884 14.246-13.771 25.302-28.441 25.302-14.67 0-26.757-11.056-28.346-25.302z" fill="#fff"/>
</g>
</svg>
