<?xml version="1.0" encoding="UTF-8"?>
<svg version="1.1" viewBox="0 0 319.17 313.18" xmlns="http://www.w3.org/2000/svg" xmlns:cc="http://creativecommons.org/ns#" xmlns:dc="http://purl.org/dc/elements/1.1/" xmlns:rdf="http://www.w3.org/1999/02/22-rdf-syntax-ns#" xmlns:xlink="http://www.w3.org/1999/xlink">
<defs>
<filter id="g" color-interpolation-filters="sRGB">
<feGaussianBlur stdDeviation="0.74285713"/>
</filter>
<linearGradient id="f" x1="264.29" x2="264.29" y1="573.26" y2="649.32" gradientTransform="translate(-156.86 344.61)" gradientUnits="userSpaceOnUse">
<stop stop-color="#f9f8f8" offset="0"/>
<stop stop-color="#ececec" offset=".070067"/>
<stop stop-color="#e8e7e7" offset=".93328"/>
<stop stop-color="#b4b3b4" offset="1"/>
</linearGradient>
<linearGradient id="e" x1="248.76" x2="249.81" y1="634.69" y2="664.5" gradientTransform="translate(-156.86 344.61)" gradientUnits="userSpaceOnUse">
<stop stop-color="#dad9d9" offset="0"/>
<stop stop-color="#dad9d9" offset=".27966"/>
<stop offset="1"/>
</linearGradient>
<radialGradient id="a" cx="103.59" cy="94.288" r="25.809" gradientTransform="matrix(1 0 0 .84932 0 14.208)" gradientUnits="userSpaceOnUse" xlink:href="#c"/>
<linearGradient id="c">
<stop stop-color="#fff" offset="0"/>
<stop stop-color="#fff" stop-opacity="0" offset="1"/>
</linearGradient>
<filter id="b" color-interpolation-filters="sRGB">
<feGaussianBlur stdDeviation="0.71376063"/>
</filter>
<linearGradient id="d" x1="72.832" x2="72.832" y1="20.395" y2="36.658" gradientUnits="userSpaceOnUse">
<stop stop-color="#a40000" offset="0"/>
<stop stop-color="#ef2929" offset="1"/>
</linearGradient>
</defs>
<metadata>
<rdf:RDF>
<cc:Work rdf:about="">
<dc:format>image/svg+xml</dc:format>
<dc:type rdf:resource="http://purl.org/dc/dcmitype/StillImage"/>
<dc:title/>
</cc:Work>
</rdf:RDF>
</metadata>
<g transform="translate(-740.41 -164.34)">
<g transform="matrix(4 0 0 4 462.3 -3508.7)">
<rect x="73.032" y="920.25" width="74.286" height="74.286" ry="9.2857" fill="#888a85" filter="url(#g)" opacity=".72245" stroke="#888a85" stroke-width=".44291"/>
<rect x="70.282" y="918.75" width="74.286" height="74.286" ry="9.2857" fill="url(#f)" stroke="url(#e)" stroke-width=".44291"/>
<path transform="matrix(.85722 0 0 .54844 4.3209 879.78)" d="m129.4 94.288c0 12.106-11.555 21.92-25.809 21.92-14.254 0-25.809-9.8141-25.809-21.92 0-12.106 11.555-21.92 25.809-21.92 14.254 0 25.809 9.8141 25.809 21.92z" fill="url(#a)" filter="url(#b)" opacity=".76327"/>
<path transform="matrix(.35623 0 0 .43954 96.878 941.41)" d="m129.4 94.288c0 12.106-11.555 21.92-25.809 21.92-14.254 0-25.809-9.8141-25.809-21.92 0-12.106 11.555-21.92 25.809-21.92 14.254 0 25.809 9.8141 25.809 21.92z" fill="url(#a)" filter="url(#b)" opacity=".76327"/>
<path transform="matrix(.87676 0 0 .87676 43.569 930.89)" d="m80.964 28.527c0 4.491-3.6407 8.1317-8.1317 8.1317-4.491 0-8.1317-3.6407-8.1317-8.1317 0-4.491 3.6407-8.1317 8.1317-8.1317 4.491 0 8.1317 3.6407 8.1317 8.1317z" fill="url(#d)"/>
<path d="m100.33 956.68c-0.0243 0.23968-0.0238 0.4673-0.0238 0.7134 0 3.9375 3.1727 7.134 7.1102 7.134 3.9376 0 7.134-3.1964 7.134-7.134 0-0.2461 5.5e-4 -0.47372-0.0237-0.7134-0.39709 3.5615-3.4427 6.3255-7.1102 6.3255-3.6675 0-6.6894-2.7639-7.0864-6.3255z" fill="#fff"/>
</g>
</g>
</svg>
